<svg aria-hidden="true" style="position: absolute; width: 0; height: 0; overflow: hidden;" version="1.1" xmlns="http://www.w3.org/2000/svg" xmlns:xlink="http://www.w3.org/1999/xlink">
<defs>
<symbol id="icon-champ" viewBox="0 0 32 32">
<path fill="#d34a42" style="fill: var(--color1, #d34a42)" d="M15.253 20.11c-2.722-0.493-3.875-2.208-3.875-5.56v-2.73c0-0.265-0.215-0.48-0.48-0.48s-0.48 0.215-0.48 0.48v2.73c0 3.8 1.486 5.928 4.664 6.505 0.029 0.005-0.001 0.008 0.027 0.008 0.228 0 0.459-0.163 0.501-0.395 0.047-0.261-0.096-0.511-0.357-0.558z"></path>
<path fill="#d34a42" style="fill: var(--color1, #d34a42)" d="M16.539 22h0.48c0.265 0 0.48-0.215 0.48-0.48s-0.215-0.48-0.48-0.48h-0.48c-0.265 0-0.48 0.215-0.48 0.48s0.215 0.48 0.48 0.48z"></path>
<path fill="#d34a42" style="fill: var(--color1, #d34a42)" d="M26.592 17.13c3.17-0.944 5.148-6.827 5.148-10.030 0-1.273-0.309-2.191-0.942-2.806-0.982-0.953-2.439-0.91-3.984-0.862-0.025 0-0.053 0-0.078 0.001v-2.174c0-0.53-0.549-0.861-1.079-0.861h-18.24c-0.53 0-0.841 0.331-0.841 0.861v2.245c-0.093-0.030-0.19-0.050-0.293-0.050-0.378 0-0.746-0.012-1.099-0.022-1.541-0.048-3.001-0.091-3.984 0.862-0.634 0.615-0.942 1.533-0.942 2.806 0 3.49 2.346 10.164 6.024 10.164 0.158 0 0.305-0.042 0.436-0.11 0.734 4.375 4.265 8.054 8.498 8.61v3.916h-5.879c-0.53 0-0.96 0.43-0.96 0.96s0.43 0.96 0.96 0.96h13.92c0.53 0 0.96-0.43 0.96-0.96s-0.43-0.96-0.96-0.96h-6.121v-3.85c4.565-0.197 8.652-4.060 9.455-8.7zM2.179 7.1c0-0.492 0.062-1.139 0.359-1.428 0.4-0.387 1.463-0.355 2.589-0.321 0.372 0.012 0.759 0.023 1.157 0.023 0.103 0 0.2-0.020 0.293-0.050v10.070c-0.093-0.030-0.19-0.050-0.293-0.050-1.903-0.001-4.104-4.989-4.104-8.244zM26.873 5.352c1.127-0.034 2.19-0.066 2.589 0.321 0.296 0.288 0.359 0.936 0.359 1.428 0 2.681-1.493 6.535-3.084 7.812v-9.558c0.044-0.001 0.093-0.001 0.136-0.002zM8.498 15.483v-13.163h16.32v1.765c-0.038 0.103-0.062 0.213-0.062 0.33s0.024 0.227 0.062 0.33v10.738c0 0.2-0.017 0.399-0.033 0.597-0.017 0.072-0.029 0.146-0.029 0.224 0 0.021 0.005 0.040 0.006 0.060-0.477 4.015-4.121 7.556-7.988 7.556h-0.179c-0.127-0.062-0.267-0.099-0.418-0.099-0.125 0-0.243 0.026-0.353 0.069-3.947-0.311-7.327-4.22-7.327-8.407z"></path>
</symbol>
<symbol id="icon-head" viewBox="0 0 17 32">
<path fill="#d34a42" style="fill: var(--color1, #d34a42)" d="M16.691 16.183c-0.124-2.682-1.672-4.992-3.907-6.189-0.176-0.096-0.358-0.184-0.543-0.264-0.905-0.393-1.904-0.612-2.953-0.612-3.943 0-7.162 3.080-7.392 6.966l0.003-0v0.013c0 0.143-0.008 0.839-0.008 0.839l-1.324 3.639c-0.13 0.361 0.135 0.716 0.519 0.716h0.798l-0.006 4.186c0 0.814 0.66 1.526 1.473 1.526h2.767v3.724c0 0.604 0.474 1.079 1.078 1.079h6.778c0.604 0 1.036-0.475 1.036-1.079v-7.708c0-1.062 0.312-2.098 0.807-3.037 0.518-0.981 0.838-2.092 0.866-3.272 0.001-0.059 0.010-0.12 0.010-0.18 0-0.116 0.005-0.232-0.001-0.346zM11.835 17.071h-5.36c-1.342 0-2.431-1.072-2.431-2.415s1.088-2.423 2.431-2.423c0.229 0 0.45 0.038 0.66 0.097 0.349-0.915 1.232-1.563 2.269-1.563 1.006 0 1.869 0.612 2.238 1.483 0.064-0.005 0.127-0.009 0.192-0.009 1.343 0 2.431 1.072 2.431 2.415s-1.088 2.415-2.431 2.415z"></path>
<path fill="#d34a42" style="fill: var(--color1, #d34a42)" d="M13.165 6.816h0.546v0.502c0 0.222 0.135 0.402 0.357 0.402s0.357-0.18 0.357-0.402v-0.502h0.6c0.222 0 0.402-0.2 0.402-0.422s-0.18-0.422-0.402-0.422h-0.6v-0.514c0-0.222-0.135-0.402-0.357-0.402s-0.357 0.18-0.357 0.402v0.514h-0.546c-0.222 0-0.402 0.2-0.402 0.422s0.18 0.422 0.402 0.422z"></path>
<path fill="#d34a42" style="fill: var(--color1, #d34a42)" d="M4.218 2.013h0.406v0.528c0 0.222 0.233 0.402 0.454 0.402s0.454-0.18 0.454-0.402v-0.528h0.545c0.222 0 0.402-0.2 0.402-0.422s-0.18-0.422-0.402-0.422h-0.545v-0.488c0-0.222-0.233-0.402-0.454-0.402s-0.454 0.18-0.454 0.402v0.488h-0.406c-0.222 0-0.402 0.2-0.402 0.422s0.18 0.422 0.402 0.422z"></path>
<path fill="#d34a42" style="fill: var(--color1, #d34a42)" d="M6.96 13.696h-1.752v1.752h1.752v-1.752z"></path>
<path fill="#d34a42" style="fill: var(--color1, #d34a42)" d="M8.145 15.318h2.191l-1.096-1.671-1.096 1.671z"></path>
<path fill="#d34a42" style="fill: var(--color1, #d34a42)" d="M12.321 15.459c0.508 0 0.92-0.412 0.92-0.92s-0.412-0.92-0.92-0.92-0.92 0.412-0.92 0.92c0 0.508 0.412 0.92 0.92 0.92z"></path>
<path fill="#d34a42" style="fill: var(--color1, #d34a42)" d="M8.858 7.57c0.066 0.063 0.151 0.095 0.236 0.095s0.17-0.032 0.236-0.095l1.264-1.208c0.101-0.097 0.133-0.209 0.081-0.339s-0.177-0.18-0.317-0.18h-0.864l-0.005-2.62c-0-0.222-0.18-0.496-0.402-0.496-0 0-0 0-0.001 0-0.222 0.195-0.401 0.275-0.401 0.497l0.005 2.618h-0.861c-0.14 0-0.265 0.049-0.317 0.18s-0.020 0.26 0.081 0.357l1.265 1.19z"></path>
<path fill="#d34a42" style="fill: var(--color1, #d34a42)" d="M9.037 2.013c0.222 0 0.454-0.18 0.454-0.402v-0.952c0-0.222-0.233-0.402-0.454-0.402s-0.454 0.18-0.454 0.402v0.953c0 0.222 0.233 0.402 0.454 0.402z"></path>
</symbol>
<symbol id="icon-location" viewBox="0 0 35 32">
<path fill="#d34a42" style="fill: var(--color1, #d34a42)" d="M34.29 7.36c-0.162-0.108-0.378-0.162-0.54-0.054l-11.016 3.942-7.722-2.808c0.432-1.080 0.648-2.052 0.648-2.862 0-1.458-0.54-2.754-1.566-3.78s-2.376-1.566-3.78-1.566c-2.97 0-5.346 2.376-5.346 5.346 0 1.026 0.378 2.268 1.026 3.78l-5.616 1.89c-0.216 0.108-0.378 0.324-0.378 0.54v19.44c0 0.216 0.108 0.378 0.27 0.486 0.108 0.054 0.216 0.108 0.324 0.108 0.054 0 0.162 0 0.216-0.054l11.016-3.888 10.692 3.942c0.108 0.054 0.27 0.054 0.378 0l11.232-3.996c0.216-0.108 0.378-0.324 0.378-0.54v-19.44c0.054-0.216-0.054-0.378-0.216-0.486zM10.314 1.312c1.134 0 2.16 0.432 2.916 1.242 0.81 0.756 1.242 1.836 1.242 2.916 0 0.756-0.27 1.782-0.81 2.97-0.972 2.16-2.592 4.428-3.348 5.454-0.108-0.108-0.162-0.216-0.27-0.378-0.702-0.972-1.836-2.592-2.646-4.266-0.81-1.566-1.188-2.862-1.188-3.834-0.054-2.214 1.836-4.104 4.104-4.104zM33.372 26.854l-10.638 3.78-10.692-3.942c-0.054 0-0.162-0.054-0.216-0.054s-0.162 0-0.216 0.054l-10.422 3.726v-18.198l5.4-1.89c0 0 0 0 0 0.054 0.054 0.054 0.054 0.108 0.108 0.162 0.054 0.108 0.108 0.216 0.162 0.324 0.054 0.054 0.054 0.108 0.108 0.162 0.054 0.108 0.108 0.216 0.162 0.324 0.054 0.054 0.054 0.108 0.108 0.162 0.054 0.108 0.108 0.216 0.162 0.27s0.054 0.108 0.108 0.162 0.108 0.162 0.162 0.27c0.054 0.054 0.054 0.108 0.108 0.162 0.054 0.108 0.108 0.162 0.162 0.27 0.054 0.054 0.054 0.108 0.108 0.162 0.054 0.108 0.108 0.162 0.162 0.27 0.054 0.054 0.054 0.108 0.108 0.162 0.054 0.108 0.108 0.162 0.162 0.27 0.054 0.054 0.054 0.108 0.108 0.108 0.054 0.108 0.108 0.162 0.162 0.216 0 0.054 0.054 0.054 0.054 0.108 0.054 0.108 0.108 0.162 0.162 0.216l0.054 0.054c0.054 0.054 0.108 0.162 0.162 0.216l0.054 0.054c0.054 0.054 0.108 0.162 0.162 0.216s0.108 0.108 0.162 0.162c0.108 0.162 0.216 0.27 0.216 0.324 0.108 0.162 0.27 0.216 0.486 0.216 0.162 0 0.324-0.108 0.486-0.216 0 0 0.054-0.054 0.162-0.162l0.054-0.054c0.054-0.054 0.054-0.054 0.108-0.108l0.054-0.054c0.054-0.054 0.054-0.108 0.108-0.162 0-0.054 0.054-0.054 0.054-0.108 0.054-0.054 0.108-0.108 0.108-0.162 0.054-0.054 0.054-0.108 0.108-0.162s0.108-0.108 0.162-0.216c0.054-0.054 0.054-0.108 0.108-0.162s0.108-0.108 0.162-0.216c0.054-0.054 0.108-0.108 0.108-0.162 0.054-0.054 0.108-0.162 0.162-0.216s0.108-0.162 0.162-0.216 0.108-0.162 0.162-0.216 0.108-0.162 0.162-0.216c0.054-0.108 0.108-0.162 0.162-0.27 0.054-0.054 0.108-0.162 0.162-0.216 0.054-0.108 0.108-0.162 0.162-0.27s0.108-0.162 0.162-0.27c0.054-0.108 0.108-0.162 0.162-0.27s0.108-0.162 0.162-0.27c0.054-0.108 0.108-0.162 0.162-0.27s0.108-0.162 0.162-0.27c0.054-0.108 0.108-0.162 0.162-0.27s0.108-0.162 0.162-0.27c0.054-0.108 0.108-0.216 0.162-0.27 0.054-0.108 0.108-0.162 0.108-0.27 0 0 0 0 0-0.054l7.992 2.916c0.108 0.054 0.27 0.054 0.378 0l10.422-3.726v18.306z"></path>
<path fill="#d34a42" style="fill: var(--color1, #d34a42)" d="M28.35 21.616c0.108 0.054 0.27 0.054 0.378 0.054 0.324 0 0.648-0.108 0.918-0.27 0.378-0.27 0.648-0.648 0.756-1.080s0-0.918-0.216-1.296c-0.27-0.378-0.648-0.648-1.080-0.756-0.918-0.216-1.89 0.378-2.106 1.296-0.108 0.432 0 0.918 0.216 1.296 0.324 0.378 0.702 0.648 1.134 0.756zM28.188 19.78c0.054-0.324 0.378-0.486 0.648-0.432 0.162 0.054 0.27 0.108 0.324 0.27 0.054 0.108 0.108 0.27 0.054 0.432s-0.108 0.27-0.27 0.324c-0.108 0.054-0.27 0.108-0.432 0.054s-0.27-0.108-0.324-0.27c0-0.108 0-0.216 0-0.378z"></path>
<path fill="#d34a42" style="fill: var(--color1, #d34a42)" d="M5.94 19.834l-0.378 0.216-0.216-0.378c-0.162-0.27-0.54-0.378-0.81-0.162-0.27 0.162-0.378 0.54-0.162 0.81l0.216 0.378-0.378 0.216c-0.27 0.162-0.378 0.54-0.162 0.81 0.054 0.216 0.27 0.27 0.432 0.27 0.108 0 0.216-0.054 0.324-0.108l0.378-0.216 0.216 0.378c0.108 0.162 0.324 0.27 0.486 0.27 0.108 0 0.216-0.054 0.324-0.108 0.27-0.162 0.378-0.54 0.162-0.81l-0.216-0.378 0.378-0.216c0.27-0.162 0.378-0.54 0.162-0.81-0.108-0.27-0.486-0.324-0.756-0.162z"></path>
<path fill="#d34a42" style="fill: var(--color1, #d34a42)" d="M11.502 21.454c-0.702 0-1.62-0.108-2.214-0.27-0.324-0.054-0.648 0.162-0.702 0.486s0.162 0.648 0.486 0.702c0.594 0.108 1.566 0.27 2.43 0.27 0.324 0 0.594-0.27 0.594-0.594s-0.27-0.594-0.594-0.594z"></path>
<path fill="#d34a42" style="fill: var(--color1, #d34a42)" d="M15.93 19.402c-0.378 0.54-0.81 0.972-1.35 1.296-0.162 0.108-0.378 0.216-0.594 0.324-0.324 0.108-0.432 0.486-0.324 0.81 0.108 0.216 0.324 0.378 0.54 0.378 0.054 0 0.162 0 0.216-0.054 0.27-0.108 0.486-0.216 0.702-0.378 0.648-0.432 1.188-0.918 1.674-1.566 0.216-0.27 0.162-0.648-0.108-0.81-0.162-0.324-0.54-0.27-0.756 0z"></path>
<path fill="#d34a42" style="fill: var(--color1, #d34a42)" d="M20.25 15.514c-0.594 0-0.918 0.162-1.242 0.27-0.756 0.324-1.404 1.026-1.566 1.242-0.216 0.27-0.162 0.648 0.054 0.864 0.108 0.108 0.27 0.162 0.378 0.162 0.162 0 0.324-0.054 0.432-0.216 0.27-0.324 0.702-0.702 1.134-0.918 0.324-0.108 0.432-0.162 0.81-0.216 0.324 0 0.594-0.27 0.594-0.594s-0.27-0.594-0.594-0.594z"></path>
<path fill="#d34a42" style="fill: var(--color1, #d34a42)" d="M22.464 16.432c-0.108 0.324 0 0.648 0.324 0.81 0.594 0.27 1.458 0.702 2.106 1.188 0.108 0.054 0.216 0.108 0.324 0.108 0.216 0 0.378-0.108 0.486-0.27 0.162-0.27 0.108-0.648-0.162-0.81-0.756-0.486-1.62-0.972-2.322-1.242-0.27-0.216-0.594-0.054-0.756 0.216z"></path>
<path fill="#d34a42" style="fill: var(--color1, #d34a42)" d="M10.314 6.928c1.026 0 1.836-0.81 1.836-1.836s-0.81-1.836-1.836-1.836c-1.026 0-1.836 0.81-1.836 1.836s0.864 1.836 1.836 1.836zM10.314 4.444c0.324 0 0.648 0.27 0.648 0.648 0 0.324-0.27 0.648-0.648 0.648-0.324 0-0.648-0.27-0.648-0.648 0.054-0.324 0.324-0.648 0.648-0.648z"></path>
</symbol>
<symbol id="icon-paint" viewBox="0 0 32 32">
<path fill="#d34a42" style="fill: var(--color1, #d34a42)" d="M4.749 20.378l16.077-16.077 6.879 6.878-16.077 16.077-6.878-6.878zM21.565 8.179l-0.754-0.753-12.939 12.938 0.754 0.754 12.94-12.939zM23.073 9.686l-0.754-0.754-12.94 12.941 0.753 0.753 12.941-12.939zM24.581 11.194l-0.754-0.754-12.939 12.939 0.754 0.754 12.94-12.939zM23.904 1.264c0.843-0.846 2.209-0.851 3.046-0.014l3.793 3.793c0.837 0.837 0.832 2.201-0.013 3.046l-2.344 2.344-6.826-6.826 2.344-2.343zM4.219 21.274l6.512 6.512-5.707 2.027-2.833-2.833 2.027-5.707zM3.944 30.166l-3.311 1.206 1.206-3.311 2.105 2.105z"></path>
</symbol>
<symbol id="icon-people" viewBox="0 0 39 32">
<path fill="#d34a42" style="fill: var(--color1, #d34a42)" d="M37.309 21.737c1.085 0 1.964-0.879 1.964-1.964v-17.673c0-1.085-0.879-1.964-1.964-1.964h-35.345c-1.085 0-1.964 0.879-1.964 1.964v17.673c0 1.085 0.879 1.964 1.964 1.964h0.986c0.268 0.533 0.601 1.029 1.016 1.449-2.29 0.72-3.967 2.837-3.967 5.362v2.332c0 0.543 0.439 0.982 0.982 0.982h37.309c0.543 0 0.982-0.439 0.982-0.982v-2.332c0-2.525-1.676-4.642-3.967-5.362 0.416-0.42 0.748-0.916 1.017-1.449h0.986zM37.309 28.549v1.35h-35.345v-1.35c0-2.030 1.652-3.682 3.682-3.682h4.664c1.060 0 2.040 0.452 2.76 1.272 0.372 0.427 1.105 0.427 1.477 0 0.719-0.821 1.699-1.272 2.76-1.272h4.664c1.060 0 2.040 0.452 2.76 1.272 0.372 0.427 1.105 0.427 1.477 0 0.719-0.821 1.699-1.272 2.76-1.272h4.664c2.029 0 3.681 1.652 3.681 3.682zM4.295 19.221c0-2.030 1.652-3.682 3.682-3.682s3.682 1.652 3.682 3.682c0 2.030-1.651 3.682-3.682 3.682s-3.682-1.652-3.682-3.682zM11.995 23.179c0.412-0.419 0.743-0.912 1.010-1.442h1.605c0.267 0.53 0.598 1.023 1.010 1.442-0.653 0.209-1.269 0.526-1.812 0.96-0.543-0.434-1.16-0.751-1.812-0.96zM15.955 19.221c0-2.030 1.652-3.682 3.682-3.682s3.682 1.652 3.682 3.682c0 2.030-1.652 3.682-3.682 3.682s-3.682-1.652-3.682-3.682zM23.653 23.179c0.413-0.419 0.744-0.912 1.010-1.442h1.605c0.267 0.53 0.598 1.023 1.010 1.442-0.653 0.209-1.269 0.526-1.812 0.96-0.543-0.434-1.16-0.751-1.812-0.96zM27.613 19.221c0-2.030 1.652-3.682 3.682-3.682s3.682 1.652 3.682 3.682c0 2.030-1.652 3.682-3.682 3.682s-3.682-1.652-3.682-3.682zM31.295 13.576c-3.113 0-5.645 2.532-5.645 5.645 0 0.189 0.038 0.368 0.056 0.552h-0.479c0.018-0.185 0.056-0.363 0.056-0.552 0-3.113-2.532-5.645-5.645-5.645s-5.645 2.532-5.645 5.645c0 0.189 0.037 0.368 0.056 0.552h-0.48c0.018-0.185 0.056-0.363 0.056-0.552 0-3.113-2.532-5.645-5.645-5.645s-5.645 2.532-5.645 5.645c0 0.189 0.038 0.368 0.056 0.552h-0.423v-17.673h35.345v17.673h-0.424c0.018-0.185 0.056-0.363 0.056-0.552 0-3.113-2.532-5.645-5.645-5.645z"></path>
</symbol>
<symbol id="icon-value" viewBox="0 0 28 32">
<path fill="#d34a42" style="fill: var(--color1, #d34a42)" d="M26.375 14.875c0.622 0 1.125-0.503 1.125-1.125v-2.25c0-0.622-0.503-1.125-1.125-1.125h-2.943c0.943-2.013 0.966-4.453-0.29-6.613-1.313-2.258-3.861-3.512-6.472-3.512h-5.542c-1.71 0-3.365 0.6-4.679 1.694l-0.828 0.69c-0.716 0.597-0.813 1.661-0.216 2.377l1.441 1.729c0.597 0.716 1.661 0.813 2.377 0.216l0.825-0.688c0.304-0.253 0.687-0.392 1.082-0.392h5.88c0.822 0 1.491 0.669 1.491 1.491 0 0.416-0.174 0.814-0.479 1.095l-2.074 1.913h-14.323c-0.622 0-1.125 0.503-1.125 1.125v2.25c0 0.622 0.503 1.125 1.125 1.125h9.448l-2.438 2.25h-7.010c-0.622 0-1.125 0.503-1.125 1.125v2.25c0 0.622 0.503 1.125 1.125 1.125h2.943c-0.943 2.013-0.966 4.453 0.29 6.613 1.313 2.257 3.861 3.512 6.472 3.512h5.542c1.71 0 3.365-0.6 4.679-1.694l0.828-0.69c0.716-0.597 0.813-1.661 0.216-2.377l-1.441-1.729c-0.597-0.716-1.661-0.813-2.377-0.216l-0.826 0.689c-0.303 0.253-0.685 0.391-1.080 0.391h-5.88c-0.822 0-1.491-0.669-1.491-1.491 0-0.416 0.174-0.814 0.479-1.095l2.074-1.914h14.323c0.622 0 1.125-0.503 1.125-1.125v-2.25c0-0.622-0.503-1.125-1.125-1.125h-9.448l2.438-2.25h7.010z"></path>
</symbol>
</defs>
</svg>
